<svg xmlns="http://www.w3.org/2000/svg" xmlns:xlink="http://www.w3.org/1999/xlink" width="232" height="232" viewBox="0 0 232 232">
  <defs>
    <linearGradient id="linear-gradient" x1="0.505" y1="-0.033" x2="0.487" y2="1.224" gradientUnits="objectBoundingBox">
      <stop offset="0.38" stop-color="#fff"/>
      <stop offset="1" stop-color="#787878"/>
    </linearGradient>
    <linearGradient id="linear-gradient-2" x1="0.458" y1="0.036" x2="0.506" y2="1.054" gradientUnits="objectBoundingBox">
      <stop offset="0.38" stop-color="#de127f"/>
      <stop offset="1" stop-color="#bc24bf"/>
    </linearGradient>
  </defs>
  <g id="Group_523" data-name="Group 523" transform="translate(-1012.149 -7491.717)">
    <g id="Rectangle_301" data-name="Rectangle 301" transform="translate(1012.149 7491.717)" fill="rgba(0,0,0,0.84)" stroke="#cb1da4" stroke-width="6">
      <rect width="232" height="232" rx="46" stroke="none"/>
      <rect x="3" y="3" width="226" height="226" rx="43" fill="none"/>
    </g>
    <g id="Group_520" data-name="Group 520" transform="translate(1041.149 7558.213)">
      <path id="Path_349" data-name="Path 349" d="M44.772,12.333a48.181,48.181,0,0,1,19.75,3.776A50.959,50.959,0,0,1,80.643,26.8,50.16,50.16,0,0,1,91.5,42.734,48.375,48.375,0,0,1,95.479,62.35,48.373,48.373,0,0,1,91.5,81.966,49.882,49.882,0,0,1,80.643,97.839a51.333,51.333,0,0,1-16.121,10.624,49.24,49.24,0,0,1-19.75,3.776H9.961a5.775,5.775,0,0,1-4.3-1.76,5.857,5.857,0,0,1-1.766-4.288V18.413a5.734,5.734,0,0,1,1.766-4.288,5.9,5.9,0,0,1,4.3-1.76H44.772ZM16.031,24.43v75.681H44.772a36.66,36.66,0,0,0,14.965-2.816A39.6,39.6,0,0,0,72,89.231,37.669,37.669,0,0,0,80.289,77.2,36.569,36.569,0,0,0,83.341,62.35,36.044,36.044,0,0,0,80.289,47.5,38.383,38.383,0,0,0,59.737,27.277a36.229,36.229,0,0,0-14.965-2.816H16.031Z" transform="translate(-3.892 -12.328)" fill="url(#linear-gradient)"/>
      <path id="Path_350" data-name="Path 350" d="M38.487,85.665v20.6a5.925,5.925,0,0,1-5.946,5.98,5.633,5.633,0,0,1-4.216-1.74,5.818,5.818,0,0,1-1.73-4.24V18.308a5.925,5.925,0,0,1,5.947-5.98,5.632,5.632,0,0,1,4.216,1.74,5.818,5.818,0,0,1,1.73,4.24V68.264L89.769,14.195a5.955,5.955,0,0,1,4.373-1.867,5.871,5.871,0,0,1,4.09,1.582,6.75,6.75,0,0,1,1.856,4.24,6.286,6.286,0,0,1-1.73,4.239L62.272,60.513l40.3,41.446a6.235,6.235,0,0,1,1.73,4.3,5.545,5.545,0,0,1-1.856,4.176,5.625,5.625,0,0,1-4.09,1.74,6.059,6.059,0,0,1-4.373-1.867L54.092,69.119,38.487,85.6Z" transform="translate(70.541 -12.328)" fill="url(#linear-gradient-2)"/>
    </g>
  </g>
</svg>

